# xmcd CD database file
#
# Track frame offsets:
#	150
#	28730
#	49600
#	66690
#	83567
#	102867
#	118922
#	144050
#	157460
#	176520
#
# Disc length: 2568 seconds
#
# Revision: 2
# Processed by: cddbd v1.4b41PL1 Copyright (c) Steve Scherf et al.
# Submitted via: Feurio! 1.50.2ß - http://www.feurio.com
#
DISCID=890a060a
DTITLE=Kal David - Never A Dull moment
DYEAR=1900
DGENRE=
TTITLE0=Wishing Well
TTITLE1=A Nickel And A Nail
TTITLE2=Love Is Hurtin' Thing
TTITLE3=I Only Have Love For You
TTITLE4=Let's Make A Million Dollars
TTITLE5=Hang On In There
TTITLE6=Devil In Me
TTITLE7=Messin' With The Kind
TTITLE8=Lost Without You
TTITLE9=Fool For You
EXTD=
EXTT0=
EXTT1=
EXTT2=
EXTT3=
EXTT4=
EXTT5=
EXTT6=
EXTT7=
EXTT8=
EXTT9=
PLAYORDER=
